<?xml version="1.0"?>
<svg xmlns="http://www.w3.org/2000/svg" viewBox="0 0 50 50">
    <path style="text-indent:0;text-align:start;line-height:normal;text-transform:none;block-progression:tb;-inkscape-font-specification:Bitstream Vera Sans" d="M 22.5 5 C 16.712628 5 12 9.7126277 12 15.5 C 12 15.672664 12.02189 15.831473 12.03125 16 C 12.02044 15.999948 12.01084 16 12 16 C 7.593562 16 4 19.593562 4 24 C 4 28.406438 7.593562 32 12 32 L 16.625 32 L 16.59375 32.125 A 1.0001 1.0001 0 1 0 18.5 32.71875 L 18.75 32 L 23.6875 32 A 1.0001 1.0001 0 0 0 25.65625 32.25 L 25.75 32 L 30.625 32 L 30.59375 32.125 A 1.0001 1.0001 0 1 0 32.5 32.71875 L 32.75 32 L 36 32 C 41.511334 32 46 27.511334 46 22 C 46 16.488666 41.511334 12 36 12 C 34.746738 12 33.573052 12.29622 32.46875 12.71875 C 31.229167 8.3005043 27.304861 5 22.5 5 z M 22.5 7 C 26.749468 7 30.232463 10.096991 30.875 14.15625 L 31.09375 15.53125 L 32.34375 14.90625 C 33.446006 14.335964 34.674653 14 36 14 C 40.430666 14 44 17.569334 44 22 C 44 26.430666 40.430666 30 36 30 L 32.1875 30 A 1.0001 1.0001 0 0 0 31.8125 30 L 25.1875 30 A 1.0001 1.0001 0 0 0 24.8125 30 L 18.1875 30 A 1.0001 1.0001 0 0 0 17.8125 30 L 12 30 C 8.674438 30 6 27.325562 6 24 C 6 20.674438 8.674438 18 12 18 C 12.322799 18 12.634389 18.03832 12.96875 18.09375 L 14.375 18.3125 L 14.125 16.9375 C 14.043066 16.456944 14 15.97753 14 15.5 C 14 10.793372 17.793372 7 22.5 7 z M 23.59375 34.59375 L 22.78125 35 L 22.625 35.3125 L 22.0625 37.125 L 22.21875 38 L 23 38.40625 L 23.8125 38.03125 L 23.96875 37.71875 L 24.53125 35.90625 L 24.40625 35 L 23.59375 34.59375 z M 16.0625 36.03125 A 1.0001 1.0001 0 0 0 15.9375 36.0625 A 1.0001 1.0001 0 0 0 15.1875 36.78125 L 14.75 38.21875 A 1.0001 1.0001 0 1 0 16.65625 38.78125 L 17.09375 37.375 A 1.0001 1.0001 0 0 0 16.0625 36.03125 z M 30.0625 36.03125 A 1.0001 1.0001 0 0 0 29.9375 36.0625 A 1.0001 1.0001 0 0 0 29.1875 36.78125 L 28.75 38.21875 A 1.0001 1.0001 0 1 0 30.65625 38.78125 L 31.09375 37.375 A 1.0001 1.0001 0 0 0 30.0625 36.03125 z M 21.8125 40.03125 A 1.0001 1.0001 0 0 0 20.9375 40.75 L 20.65625 41.71875 A 1.0001 1.0001 0 1 0 22.5625 42.3125 L 22.875 41.34375 A 1.0001 1.0001 0 0 0 21.90625 40.03125 A 1.0001 1.0001 0 0 0 21.8125 40.03125 z"/>
</svg>
